<?xml version="1.0" encoding="iso-8859-1"?>
<!-- Generator: Adobe Illustrator 19.0.0, SVG Export Plug-In . SVG Version: 6.00 Build 0)  -->
<svg version="1.1" id="Capa_1" xmlns="http://www.w3.org/2000/svg" xmlns:xlink="http://www.w3.org/1999/xlink" x="0px" y="0px"
	 viewBox="0 0 512 512" style="enable-background:new 0 0 512 512;" xml:space="preserve">
<rect x="241" y="400" style="fill:#0078EB;" width="30" height="47"/>
<rect x="256" y="400" style="fill:#003D6B;" width="15" height="47"/>
<polygon style="fill:#0078EB;" points="321.834,159.166 256,93.331 190.166,159.166 168.953,137.953 256,50.904 343.047,137.953 "/>
<polygon style="fill:#003D6B;" points="256,50.904 256,93.331 321.834,159.166 343.047,137.953 "/>
<path style="fill:#8DF4FF;" d="M471,416H41V136h430V416z"/>
<rect x="256" y="136" style="fill:#00E0FF;" width="215" height="280"/>
<g>
	<path style="fill:#FF6A00;" d="M256,80c-22.056,0-40-17.944-40-40s17.944-40,40-40s40,17.944,40,40S278.056,80,256,80z M256,30
		c-5.514,0-10,4.486-10,10s4.486,10,10,10s10-4.486,10-10S261.514,30,256,30z"/>
	<path style="fill:#FF6A00;" d="M256,512c-22.056,0-40-17.944-40-40s17.944-40,40-40s40,17.944,40,40S278.056,512,256,512z M256,462
		c-5.514,0-10,4.486-10,10s4.486,10,10,10s10-4.486,10-10S261.514,462,256,462z"/>
</g>
<g>
	<rect x="241" y="250" style="fill:#009AF2;" width="30" height="106"/>
	<rect x="191" y="270" style="fill:#009AF2;" width="30" height="86"/>
	<rect x="141" y="300" style="fill:#009AF2;" width="30" height="56"/>
	<rect x="91" y="320" style="fill:#009AF2;" width="30" height="36"/>
</g>
<g>
	<polygon style="fill:#FF3A00;" points="108.247,284.637 95.753,257.363 258.237,182.935 309.497,216.102 358.237,195.631 
		408.207,218.345 395.793,245.655 357.763,228.369 306.503,249.898 255.763,217.065 	"/>
	<path style="fill:#FF3A00;" d="M256,432v30c5.514,0,10,4.486,10,10s-4.486,10-10,10v30c22.056,0,40-17.944,40-40
		S278.056,432,256,432z"/>
	<path style="fill:#FF3A00;" d="M256,0v30c5.514,0,10,4.486,10,10s-4.486,10-10,10v30c22.056,0,40-17.944,40-40S278.056,0,256,0z"/>
</g>
<polygon style="fill:#E20004;" points="358.237,195.631 309.497,216.102 258.237,182.935 256,183.959 256,217.219 306.503,249.898 
	357.763,228.369 395.793,245.655 408.207,218.345 "/>
<g>
	<rect x="291" y="280" style="fill:#0078EB;" width="30" height="76"/>
	<rect x="341" y="260" style="fill:#0078EB;" width="30" height="96"/>
	<rect x="391" y="300" style="fill:#0078EB;" width="30" height="56"/>
	<rect x="256" y="250" style="fill:#0078EB;" width="15" height="106"/>
</g>
<g>
</g>
<g>
</g>
<g>
</g>
<g>
</g>
<g>
</g>
<g>
</g>
<g>
</g>
<g>
</g>
<g>
</g>
<g>
</g>
<g>
</g>
<g>
</g>
<g>
</g>
<g>
</g>
<g>
</g>
</svg>
